<?xml version="1.0" encoding="UTF-8"?><svg id="Layer_2" xmlns="http://www.w3.org/2000/svg" viewBox="0 0 535.3 535.3"><defs><style>.cls-1{fill:#00aeef;}.cls-2{fill:#171735;}</style></defs><g id="Layer_1-2"><circle class="cls-1" cx="267.65" cy="267.65" r="267.65"/><g id="Heart"><path class="cls-2" d="m121.74,238.5c0,19.55,3.01,49.64,30.08,76.72,24.07,24.07,103.79,78.22,106.8,81.23,3.01,1.5,6.02,3.01,9.03,3.01s6.02-1.5,9.03-3.01c3.01-3.01,82.73-55.66,106.8-81.23,27.08-27.08,30.08-57.16,30.08-76.72,0-45.13-36.1-81.23-81.23-81.23-24.07,0-48.14,13.54-63.18,34.6-15.04-21.06-39.11-34.6-66.19-34.6-43.62,0-81.23,36.1-81.23,81.23Z"/></g></g></svg>