<?xml version="1.0" encoding="utf-8"?>
<!-- Generator: Adobe Illustrator 27.4.0, SVG Export Plug-In . SVG Version: 6.00 Build 0)  -->
<svg version="1.1" id="Layer_1" xmlns="http://www.w3.org/2000/svg" xmlns:xlink="http://www.w3.org/1999/xlink" x="0px" y="0px"
	 viewBox="0 0 20 20" style="enable-background:new 0 0 20 20;" xml:space="preserve">
<style type="text/css">
	.st0{fill:#D2D8D8;}
</style>
<g id="Company">
	<path class="st0" d="M19.4,18.6h-1.7V2.9c0-0.2-0.2-0.5-0.4-0.5L8.4,0.3c-0.2,0-0.3,0-0.4,0.1C7.9,0.5,7.8,0.7,7.8,0.8v3.7h-5
		C2.5,4.5,2.3,4.7,2.3,5v13.6H0.6c-0.3,0-0.5,0.2-0.5,0.5c0,0.3,0.2,0.5,0.5,0.5h18.7c0.3,0,0.5-0.2,0.5-0.5
		C19.9,18.9,19.7,18.6,19.4,18.6z M8.8,1.5l7.8,1.8v15.3h-4.4V5c0-0.3-0.2-0.5-0.5-0.5H8.8V1.5z M3.3,5.5h4.9c0,0,0,0,0,0s0,0,0,0
		h2.9v13.1H3.3V5.5z M13.7,17c0-0.3,0.2-0.5,0.5-0.5h0.9c0.3,0,0.5,0.2,0.5,0.5c0,0.3-0.2,0.5-0.5,0.5h-0.9
		C14,17.5,13.7,17.3,13.7,17C13.7,17,13.7,17,13.7,17L13.7,17z M10.2,17c0,0.3-0.2,0.5-0.5,0.5H8.8c-0.3,0-0.5-0.2-0.5-0.5
		c0-0.3,0.2-0.5,0.5-0.5h0.9C9.9,16.5,10.2,16.7,10.2,17L10.2,17z M10.2,14.6c0,0.3-0.2,0.5-0.5,0.5H8.8c-0.3,0-0.5-0.2-0.5-0.5
		c0-0.3,0.2-0.5,0.5-0.5h0.9C9.9,14.1,10.2,14.3,10.2,14.6L10.2,14.6z M10.2,12.2c0,0.3-0.2,0.5-0.5,0.5H8.8c-0.3,0-0.5-0.2-0.5-0.5
		s0.2-0.5,0.5-0.5h0.9C9.9,11.7,10.2,11.9,10.2,12.2C10.2,12.2,10.2,12.2,10.2,12.2L10.2,12.2z M10.2,9.8c0,0.3-0.2,0.5-0.5,0.5H8.8
		c-0.3,0-0.5-0.2-0.5-0.5s0.2-0.5,0.5-0.5h0.9C9.9,9.3,10.2,9.5,10.2,9.8L10.2,9.8z M8.2,7.4c0-0.3,0.2-0.5,0.5-0.5h0.9
		c0.3,0,0.5,0.2,0.5,0.5c0,0.3-0.2,0.5-0.5,0.5H8.8C8.5,7.9,8.2,7.7,8.2,7.4C8.2,7.4,8.2,7.4,8.2,7.4L8.2,7.4z M6.3,17
		c0,0.3-0.2,0.5-0.5,0.5H4.9c-0.3,0-0.5-0.2-0.5-0.5c0-0.3,0.2-0.5,0.5-0.5h0.9C6,16.5,6.3,16.7,6.3,17z M6.3,14.6
		c0,0.3-0.2,0.5-0.5,0.5H4.9c-0.3,0-0.5-0.2-0.5-0.5s0.2-0.5,0.5-0.5h0.9C6,14.1,6.3,14.3,6.3,14.6L6.3,14.6z M6.3,12.2
		c0,0.3-0.2,0.5-0.5,0.5H4.9c-0.3,0-0.5-0.2-0.5-0.5c0-0.3,0.2-0.5,0.5-0.5h0.9C6,11.7,6.3,11.9,6.3,12.2
		C6.3,12.2,6.3,12.2,6.3,12.2L6.3,12.2z M6.3,9.8c0,0.3-0.2,0.5-0.5,0.5H4.9c-0.3,0-0.5-0.2-0.5-0.5s0.2-0.5,0.5-0.5h0.9
		C6,9.3,6.3,9.5,6.3,9.8L6.3,9.8L6.3,9.8z M6.3,7.4c0,0.3-0.2,0.5-0.5,0.5H4.9c-0.3,0-0.5-0.2-0.5-0.5c0-0.3,0.2-0.5,0.5-0.5h0.9
		C6,6.9,6.3,7.1,6.3,7.4C6.3,7.4,6.3,7.4,6.3,7.4L6.3,7.4z M13.7,14.6c0-0.3,0.2-0.5,0.5-0.5h0.9c0.3,0,0.5,0.2,0.5,0.5
		s-0.2,0.5-0.5,0.5h-0.9C14,15.1,13.7,14.9,13.7,14.6z M13.7,12.2c0-0.3,0.2-0.5,0.5-0.5h0.9c0.3,0,0.5,0.2,0.5,0.5
		s-0.2,0.5-0.5,0.5h-0.9C14,12.7,13.7,12.5,13.7,12.2L13.7,12.2z M13.7,9.8c0-0.3,0.2-0.5,0.5-0.5h0.9c0.3,0,0.5,0.2,0.5,0.5
		c0,0.3-0.2,0.5-0.5,0.5h-0.9C14,10.3,13.7,10.1,13.7,9.8L13.7,9.8z M13.7,7.4c0-0.3,0.2-0.5,0.5-0.5h0.9c0.3,0,0.5,0.2,0.5,0.5
		c0,0.3-0.2,0.5-0.5,0.5h-0.9C14,7.9,13.7,7.7,13.7,7.4L13.7,7.4z M13.7,5c0-0.3,0.2-0.5,0.5-0.5h0.9c0.3,0,0.5,0.2,0.5,0.5
		c0,0.3-0.2,0.5-0.5,0.5h-0.9C14,5.5,13.7,5.3,13.7,5L13.7,5z"/>
</g>
</svg>
