<?xml version="1.0" encoding="utf-8"?>
<!-- Generator: Adobe Illustrator 27.4.0, SVG Export Plug-In . SVG Version: 6.00 Build 0)  -->
<svg version="1.1" id="Layer_1" xmlns="http://www.w3.org/2000/svg" xmlns:xlink="http://www.w3.org/1999/xlink" x="0px" y="0px"
	 viewBox="0 0 20 20" style="enable-background:new 0 0 20 20;" xml:space="preserve">
<style type="text/css">
	.st0{fill:#D2D8D8;}
</style>
<g>
	<g>
		<path class="st0" d="M6.3,4.2C6,4.2,5.6,4,5.6,3.6V0.8c0-0.4,0.3-0.7,0.7-0.7s0.7,0.4,0.7,0.7v2.7C7.1,4,6.7,4.2,6.3,4.2z"/>
	</g>
	<g>
		<path class="st0" d="M13.7,4.2c-0.4,0-0.7-0.3-0.7-0.7V0.8c0-0.4,0.3-0.7,0.7-0.7s0.7,0.3,0.7,0.7v2.7C14.4,4,14,4.2,13.7,4.2z"/>
	</g>
	<g>
		<path class="st0" d="M17.8,8H2.2C1.8,8,1.5,7.7,1.5,7.3s0.3-0.7,0.7-0.7h15.6c0.4,0,0.7,0.3,0.7,0.7S18.2,8,17.8,8z"/>
	</g>
	<g>
		<path class="st0" d="M13.7,19.9H6.3C2.9,19.9,1,18,1,14.6V6.8c0-3.4,1.9-5.2,5.3-5.2h7.3c3.4,0,5.3,1.9,5.3,5.2v7.8
			C19,18,17.1,19.9,13.7,19.9z M6.3,2.9c-2.7,0-3.8,1.3-3.8,3.8v7.9c0,2.7,1.3,3.8,3.8,3.8h7.3c2.7,0,3.8-1.3,3.8-3.8V6.8
			c0-2.7-1.3-3.8-3.8-3.8L6.3,2.9L6.3,2.9z"/>
	</g>
	<g>
		<path class="st0" d="M13.4,12.5c-0.5,0-0.9-0.4-0.9-0.9c0-0.5,0.4-0.9,0.9-0.9l0,0c0.5,0,0.9,0.4,0.9,0.9
			C14.3,12.1,13.9,12.5,13.4,12.5z"/>
	</g>
	<g>
		<path class="st0" d="M13.4,15.2c-0.5,0-0.9-0.4-0.9-0.9c0-0.5,0.4-0.9,0.9-0.9l0,0c0.5,0,0.9,0.4,0.9,0.9
			C14.3,14.9,13.9,15.2,13.4,15.2z"/>
	</g>
	<g>
		<path class="st0" d="M10,12.5c-0.5,0-0.9-0.4-0.9-0.9c0-0.5,0.4-0.9,0.9-0.9l0,0c0.5,0,0.9,0.4,0.9,0.9
			C10.9,12.1,10.5,12.5,10,12.5z"/>
	</g>
	<g>
		<path class="st0" d="M10,15.2c-0.5,0-0.9-0.4-0.9-0.9c0-0.5,0.4-0.9,0.9-0.9l0,0c0.5,0,0.9,0.4,0.9,0.9
			C10.9,14.9,10.5,15.2,10,15.2z"/>
	</g>
	<g>
		<path class="st0" d="M6.6,12.5c-0.5,0-0.9-0.4-0.9-0.9c0-0.5,0.4-0.9,0.9-0.9l0,0c0.5,0,0.9,0.4,0.9,0.9
			C7.5,12.1,7.2,12.5,6.6,12.5z"/>
	</g>
	<g>
		<path class="st0" d="M6.6,15.2c-0.5,0-0.9-0.4-0.9-0.9c0-0.5,0.4-0.9,0.9-0.9l0,0c0.5,0,0.9,0.4,0.9,0.9
			C7.5,14.9,7.2,15.2,6.6,15.2z"/>
	</g>
</g>
</svg>
