<?xml version="1.0" encoding="utf-8"?>
<!-- Generator: Adobe Illustrator 27.4.0, SVG Export Plug-In . SVG Version: 6.00 Build 0)  -->
<svg version="1.1" id="Layer_1" xmlns="http://www.w3.org/2000/svg" xmlns:xlink="http://www.w3.org/1999/xlink" x="0px" y="0px"
	 viewBox="0 0 20 20" style="enable-background:new 0 0 20 20;" xml:space="preserve">
<style type="text/css">
	.st0{fill:#D2D8D8;}
</style>
<g id="Phone">
	<path class="st0" d="M19.1,13.8L17.3,12c-1.1-1.1-2.9-1.1-4,0c-0.6,0.6-1.5,0.7-2.2,0.2c-1.3-0.9-2.5-2-3.3-3.3
		C7.3,8.1,7.4,7.2,8,6.6c1.1-1.1,1.1-2.9,0-4L6.2,0.9c-1.1-1.1-2.9-1.1-4,0L1.7,1.4C-1,4.1-0.8,9.7,4.8,15.2
		c3.3,3.3,6.7,4.7,9.4,4.7c1.6,0.1,3.2-0.5,4.4-1.7l0.5-0.5C20.2,16.7,20.2,14.9,19.1,13.8z M18,16.6l-0.5,0.5
		c-2.1,2.1-6.7,1.7-11.5-3.1S0.7,4.6,2.9,2.5L3.4,2c0.5-0.5,1.2-0.5,1.7,0l1.8,1.8c0.5,0.5,0.5,1.2,0,1.7C5.8,6.6,5.6,8.4,6.4,9.7
		c1,1.5,2.3,2.8,3.8,3.8c1.3,0.9,3.1,0.7,4.2-0.4c0.5-0.5,1.2-0.5,1.7,0l1.8,1.8C18.5,15.4,18.5,16.1,18,16.6
		C18,16.6,18,16.6,18,16.6z"/>
</g>
</svg>
