<?xml version="1.0" encoding="UTF-8"?><svg id="Layer_2" xmlns="http://www.w3.org/2000/svg" viewBox="0 0 41.31 51.64"><defs><style>.cls-1{fill:#fff;}</style></defs><g id="Layer_1-2"><g id="login"><path class="cls-1" d="m41.31,25.82c0-.71-.58-1.29-1.29-1.29h-22.7l6.83-6.83c.48-.5.48-1.29,0-1.79-.5-.51-1.31-.53-1.83-.03l-9.04,9.04s0,0,0,0c-.5.5-.5,1.32,0,1.83l9.04,9.04c.24.24.57.38.91.38.34,0,.67-.14.91-.38.5-.5.5-1.32,0-1.83l-6.83-6.83h22.7c.71,0,1.29-.58,1.29-1.29ZM34.86,0H6.45C2.89,0,0,2.89,0,6.45v38.73c0,3.56,2.89,6.45,6.45,6.45h28.4c3.56,0,6.45-2.89,6.45-6.45v-10.33c0-.71-.58-1.29-1.29-1.29s-1.29.58-1.29,1.29v10.33c0,2.14-1.73,3.87-3.87,3.87H6.45c-2.14,0-3.87-1.73-3.87-3.87V6.45c0-2.14,1.73-3.87,3.87-3.87h28.4c2.14,0,3.87,1.73,3.87,3.87v10.33c0,.71.58,1.29,1.29,1.29s1.29-.58,1.29-1.29V6.45c0-3.56-2.89-6.45-6.45-6.45Z"/></g></g></svg>