<?xml version="1.0" encoding="UTF-8"?><svg id="Layer_2" xmlns="http://www.w3.org/2000/svg" viewBox="0 0 158.34 199.41"><defs><style>.cls-1{fill:#00aeef;}.cls-2{fill:#171735;}</style></defs><g id="Layer_1-2"><path class="cls-2" d="m31.62,154.84c0,2.76-.98,5.16-2.94,7.2s-4.43,3.06-7.41,3.06c4.25,2.01,6.37,5.48,6.37,10.39v23.92h-13.91v-34.39H0v-11.96h31.62v1.78Z"/><path class="cls-2" d="m49.33,171.35c0,9-4.64,13.49-13.91,13.49v-24.33c0-2.68-.79-5.16-2.36-7.45h16.26v18.29Z"/><path class="cls-2" d="m89.14,199.41h-13.91v-48.21c3.06,0,5.92,1.03,8.57,3.1,3.56,2.87,5.34,6.88,5.34,12.04v33.07Z"/><path class="cls-2" d="m115.3,199.41h-21.93v-11.34h7.99v-24.25c-3.34,0-5.63,1.13-6.87,3.39h-1.04v-14.15h8.24c9.08,0,13.62,5.08,13.62,15.23v31.12Z"/><path class="cls-2" d="m158.34,199.41h-13.91v-35.76h-5.09v21.69c0,9.38-3.92,14.07-11.75,14.07h-8.24v-14.82h1.04c1.68,2.26,3.37,3.39,5.05,3.39v-22.97c-1.96.39-3.59,1.28-4.88,2.69h-.7v-14.65h25.2c3.92,0,7.02,1.05,9.31,3.14,2.65,2.46,3.97,6.02,3.97,10.68v32.53Z"/><path class="cls-2" d="m152.85,28.48c-.8-1.61-2.33-3.42-4.03-2.83-1.2.42-1.72,1.91-1.51,3.16.21,1.25.85,3.96,1.11,5.2,2.36,11.08,1.89,20.48-6.36,27.52-7.13,6.09-16.75,8.45-26.2,8.26-3.07-.06-3.84-4.33-.98-5.43.02,0,.04-.02.06-.02,2.13-.79,4.62-.56,9.03-2.06,5.25-1.78,10.24-9.28.63-8.24-9.54,1.03-16.69,2.57-24.62,7.74-6.08,3.96-10.9,8.36-14.14,15.55-9.44,20.93-2.86,41-2.86,41-1.25-8.25,3.58-16.48,10.2-21.55s14.82-7.55,22.86-9.78c8.04-2.23,16.27-4.38,23.27-8.92,7.87-5.11,13.76-13.17,16.22-22.22,2.47-9.05,1.49-18.99-2.69-27.38Z"/><path class="cls-2" d="m141.42,39.63c2.09,7.78,2.49,14.68-1.17,20.49.15-.12.3-.25.45-.37,5.49-4.69,7.53-10.42,7.59-17-.73-2.84-1.82-5.58-3.27-8.13-.77-1.37-2.18-2.87-3.64-2.28-1.02.42-1.4,1.74-1.17,2.82.24,1.08.92,3.41,1.2,4.48Z"/><path class="cls-2" d="m135.01,45.75c1.85,6.89,2.25,13.02-.76,18.22.72-.36,1.42-.74,2.11-1.14,3.65-3.95,5.09-8.46,5.12-13.46-.66-2.87-1.72-5.65-3.18-8.21-.71-1.25-2-2.62-3.33-2.08-.94.38-1.28,1.59-1.07,2.58.22.99.84,3.12,1.1,4.09Z"/><path class="cls-2" d="m130.56,52.22c1.56,4.86,2.12,9.26.47,13.16.54-.2,1.08-.42,1.6-.65,2.33-3.02,3.16-6.35,3.01-9.97-.61-2.17-1.53-4.26-2.73-6.17-.59-.93-1.62-1.93-2.62-1.47-.7.33-.92,1.26-.72,2.01.2.75.76,2.35.99,3.09Z"/><path class="cls-2" d="m21.75,35.76c-.06.25-.13.56-.22.89.67-.33,1.38-.51,2.09-.51.57,0,1.13.11,1.67.33,2.15.87,3.31,3.31,2.76,5.8-.11.51-.31,1.25-.52,2,.28-.06.57-.09.86-.09.36,0,.7.05,1.04.14,8.59-19.15,27.82-32.49,50.17-32.49s41.58,13.34,50.17,32.49c.34-.09.69-.14,1.04-.14.29,0,.57.03.86.09-.21-.76-.4-1.49-.52-2-.55-2.49.61-4.93,2.76-5.8.54-.22,1.1-.33,1.67-.33.72,0,1.42.18,2.09.51-.09-.33-.16-.64-.22-.89-.18-.82-.18-1.64-.03-2.41C125.88,13.41,104.31,0,79.6,0S33.33,13.41,21.78,33.35c.15.76.15,1.58-.03,2.41Z"/><path class="cls-1" d="m19.89,78.08c7,4.54,15.23,6.69,23.27,8.92,8.04,2.23,16.23,4.72,22.86,9.78,6.63,5.07,11.45,13.3,10.2,21.55,0,0,6.58-20.07-2.86-41-3.25-7.19-8.06-11.59-14.14-15.55-7.93-5.17-15.08-6.7-24.62-7.74-9.61-1.04-4.62,6.45.63,8.23,4.41,1.5,6.9,1.26,9.03,2.06.02,0,.04.02.06.02,2.86,1.11,2.09,5.37-.98,5.43-9.45.19-19.07-2.17-26.2-8.26-8.24-7.04-8.71-16.45-6.36-27.52.26-1.24.9-3.95,1.11-5.2.21-1.25-.31-2.75-1.51-3.16-1.7-.59-3.23,1.22-4.03,2.83-4.18,8.39-5.16,18.33-2.69,27.38,2.47,9.05,8.36,17.11,16.22,22.22Z"/><path class="cls-1" d="m18.51,59.75c.15.13.3.25.45.37-3.66-5.81-3.26-12.71-1.17-20.49.29-1.07.97-3.4,1.2-4.48.24-1.08-.14-2.4-1.17-2.82-1.45-.59-2.86.91-3.64,2.28-1.44,2.55-2.54,5.29-3.27,8.13.06,6.58,2.1,12.31,7.59,17Z"/><path class="cls-1" d="m22.85,62.84c.69.41,1.4.79,2.11,1.14-3.01-5.21-2.61-11.34-.76-18.22.26-.98.88-3.1,1.1-4.09.22-.99-.13-2.2-1.07-2.58-1.33-.54-2.62.83-3.33,2.08-1.45,2.56-2.52,5.34-3.18,8.21.03,5,1.46,9.51,5.12,13.46Z"/><path class="cls-1" d="m26.57,64.73c.53.23,1.06.44,1.6.65-1.65-3.9-1.09-8.29.47-13.16.24-.74.79-2.34.99-3.09.2-.75-.02-1.69-.72-2.01-1-.46-2.03.54-2.62,1.47-1.2,1.91-2.12,3.99-2.73,6.17-.15,3.62.67,6.95,3.01,9.97Z"/><path class="cls-1" d="m140.86,80.44c-3,1.94-6.18,3.46-9.45,4.74-7.57,21.3-27.9,36.56-51.8,36.56s-44.23-15.25-51.8-36.56c-3.27-1.27-6.46-2.79-9.45-4.74-1.68-1.09-3.28-2.31-4.78-3.65,4.83,32.13,32.56,56.77,66.04,56.77s61.2-24.64,66.04-56.77c-1.5,1.33-3.1,2.55-4.78,3.65Z"/><circle class="cls-1" cx="74.93" cy="176.48" r="6.39"/></g></svg>