<?xml version="1.0" encoding="utf-8"?>
<!-- Generator: Adobe Illustrator 27.4.0, SVG Export Plug-In . SVG Version: 6.00 Build 0)  -->
<svg version="1.1" id="Layer_1" xmlns="http://www.w3.org/2000/svg" xmlns:xlink="http://www.w3.org/1999/xlink" x="0px" y="0px"
	 viewBox="0 0 24 24" style="enable-background:new 0 0 24 24;" xml:space="preserve">
<style type="text/css">
	.st0{fill:#2D2D2D;}
</style>
<g>
	<path class="st0" d="M11.5,21.8c-5.7,0-10.2-4.6-10.2-10.3S5.8,1.2,11.5,1.2s10.2,4.6,10.2,10.2S17.2,21.8,11.5,21.8z M11.5,2.7
		c-4.8,0-8.8,3.9-8.8,8.8s3.9,8.8,8.8,8.8c4.8,0,8.8-3.9,8.8-8.8S16.3,2.7,11.5,2.7z"/>
</g>
<g>
	<path class="st0" d="M22,22.8c-0.2,0-0.4-0.1-0.5-0.2l-2-2c-0.3-0.3-0.3-0.8,0-1.1s0.8-0.3,1.1,0l2,2c0.3,0.3,0.3,0.8,0,1.1
		C22.4,22.7,22.2,22.8,22,22.8z"/>
</g>
</svg>
