<?xml version="1.0" encoding="UTF-8"?><svg id="Layer_2" xmlns="http://www.w3.org/2000/svg" viewBox="0 0 46.31 55.55"><defs><style>.cls-1{fill:#fff;}</style></defs><g id="Layer_1-2"><g id="user"><path class="cls-1" d="m33.7,13.98c0,.56-.04,1.11-.11,1.67.02-.15.04-.3.06-.46-.15,1.07-.43,2.11-.85,3.11.06-.14.11-.27.17-.41-.31.72-.67,1.4-1.11,2.05-.11.17-.23.33-.35.49-.25.34.22-.27.04-.05-.06.08-.13.15-.19.23-.24.29-.49.56-.75.83-.26.26-.54.52-.83.75-.07.06-.15.13-.23.19-.22.18.39-.29.05-.04-.16.12-.33.23-.49.35-.64.43-1.33.8-2.05,1.11.14-.06.27-.11.41-.17-1,.42-2.04.7-3.11.85.15-.02.3-.04.46-.06-1.11.15-2.22.15-3.32,0,.15.02.3.04.46.06-1.07-.15-2.11-.43-3.11-.85.14.06.27.11.41.17-.72-.31-1.4-.67-2.05-1.11-.17-.11-.33-.23-.49-.35-.34-.25.27.22.05.04-.08-.06-.15-.13-.23-.19-.29-.24-.56-.49-.83-.75s-.52-.54-.75-.83c-.06-.07-.13-.15-.19-.23-.18-.22.29.39.04.05-.12-.16-.23-.33-.35-.49-.43-.64-.8-1.33-1.11-2.05.06.14.11.27.17.41-.42-1-.7-2.04-.85-3.11.02.15.04.3.06.46-.15-1.11-.15-2.22,0-3.32-.02.15-.04.3-.06.46.15-1.07.43-2.11.85-3.11-.06.14-.11.27-.17.41.31-.72.67-1.4,1.11-2.05.11-.17.23-.33.35-.49.25-.34-.22.27-.04.05.06-.08.13-.15.19-.23.24-.29.49-.56.75-.83s.54-.52.83-.75c.07-.06.15-.13.23-.19.22-.18-.39.29-.05.04.16-.12.33-.23.49-.35.64-.43,1.33-.8,2.05-1.11-.14.06-.27.11-.41.17,1-.42,2.04-.7,3.11-.85-.15.02-.3.04-.46.06,1.11-.15,2.22-.15,3.32,0-.15-.02-.3-.04-.46-.06,1.07.15,2.11.43,3.11.85-.14-.06-.27-.11-.41-.17.72.31,1.4.67,2.05,1.11.17.11.33.23.49.35.34.25-.27-.22-.05-.04.08.06.15.13.23.19.29.24.56.49.83.75s.52.54.75.83c.06.07.13.15.19.23.18.22-.29-.39-.04-.05.12.16.23.33.35.49.43.64.8,1.33,1.11,2.05-.06-.14-.11-.27-.17-.41.42,1,.7,2.04.85,3.11-.02-.15-.04-.3-.06-.46.07.55.11,1.1.11,1.66,0,.9.79,1.75,1.71,1.71s1.72-.75,1.71-1.71c-.01-2.82-.86-5.66-2.5-7.97-1.7-2.39-4.02-4.17-6.78-5.19-2.68-.99-5.74-1.07-8.49-.3-2.66.75-5.14,2.32-6.9,4.46-1.89,2.3-3.01,5.03-3.25,8-.23,2.84.49,5.78,1.96,8.21,1.42,2.34,3.55,4.31,6.06,5.44,2.78,1.25,5.81,1.62,8.8,1.02,2.71-.55,5.26-1.98,7.17-3.98,1.93-2.01,3.29-4.62,3.71-7.38.11-.77.2-1.53.2-2.31,0-.9-.79-1.75-1.71-1.71-.92.03-1.7.75-1.71,1.71Zm7.64,38.15H9.29c-1.43,0-2.86,0-4.29,0-.14,0-.29,0-.43-.02.15.02.3.04.46.06-.31-.04-.6-.12-.88-.24.14.06.27.11.41.17-.18-.08-.36-.18-.52-.29-.35-.23.26.23.05.04-.06-.06-.13-.11-.19-.18-.06-.06-.12-.13-.18-.19-.19-.21.27.39.04.05-.11-.17-.21-.34-.29-.52.06.14.11.27.17.41-.12-.29-.2-.58-.24-.88.02.15.04.3.06.46-.1-.87-.02-1.77-.02-2.64,0-1.06,0-2.12.14-3.17-.02.15-.04.3-.06.46.19-1.4.56-2.78,1.11-4.08-.06.14-.11.27-.17.41.31-.75.68-1.47,1.11-2.16.21-.34.43-.68.67-1,.06-.08.12-.17.18-.25.03-.04.06-.08.09-.12.15-.21-.13.17-.13.17.06-.17.29-.37.4-.5.52-.61,1.08-1.19,1.68-1.72.14-.13.29-.25.43-.37.08-.06.15-.13.23-.19.09-.07.25-.18-.17.13.05-.04.1-.07.15-.11.32-.24.65-.47.99-.68.78-.5,1.6-.92,2.45-1.28-.14.06-.27.11-.41.17,1.31-.55,2.68-.92,4.08-1.11-.15.02-.3.04-.46.06,1.77-.23,3.6-.14,5.38-.14h6.54c.98,0,1.94.02,2.91.14-.15-.02-.3-.04-.46-.06,1.4.19,2.78.56,4.08,1.11-.14-.06-.27-.11-.41-.17.75.31,1.47.68,2.16,1.11.34.21.68.43,1,.67.08.06.17.12.25.18.04.03.08.06.12.09.21.15-.17-.13-.17-.13.17.06.37.29.5.4.61.52,1.19,1.08,1.72,1.68.13.14.25.29.37.43.06.08.13.15.19.23.07.09.18.25-.13-.17.04.05.07.1.11.15.24.32.47.65.68.99.5.78.92,1.6,1.28,2.45-.06-.14-.11-.27-.17-.41.55,1.31.92,2.68,1.11,4.08-.02-.15-.04-.3-.06-.46.14,1.06.14,2.11.14,3.17,0,.87.07,1.77-.02,2.64.02-.15.04-.3.06-.46-.04.31-.12.6-.24.88.06-.14.11-.27.17-.41-.08.18-.18.36-.29.52-.23.35.23-.26.04-.05-.06.06-.11.13-.18.19-.06.06-.13.12-.19.18-.21.19.39-.27.05-.04-.17.11-.34.21-.52.29.14-.06.27-.11.41-.17-.29.12-.58.2-.88.24.15-.02.3-.04.46-.06-.15,0-.28.02-.41.02-.9.01-1.75.78-1.71,1.71.04.92.75,1.72,1.71,1.71,1.97-.02,3.78-1.2,4.55-3.02.43-1.03.41-2.07.41-3.16,0-.76.01-1.53,0-2.3-.02-1.55-.25-3.11-.67-4.6-.82-2.88-2.38-5.55-4.48-7.68-2.1-2.13-4.74-3.73-7.6-4.6-1.93-.59-3.93-.76-5.94-.76h-9.67c-2.77,0-5.47.64-7.96,1.85-2.69,1.31-4.97,3.34-6.71,5.75-1.78,2.46-2.81,5.37-3.17,8.37-.11.94-.11,1.89-.11,2.83C0,49.02,0,49.8,0,50.58c.02,1.82,1.05,3.62,2.71,4.42.76.37,1.54.54,2.38.54h36.26c.9,0,1.75-.79,1.71-1.71-.05-.92-.76-1.71-1.72-1.71Z"/></g></g></svg>