<?xml version="1.0" encoding="UTF-8"?><svg id="Layer_2" xmlns="http://www.w3.org/2000/svg" viewBox="0 0 535.3 535.3"><defs><style>.cls-1{fill:#00aeef;}.cls-2{fill:#171735;}</style></defs><g id="Layer_1-2"><circle class="cls-2" cx="267.65" cy="267.65" r="267.65"/><g id="Hands_Heart"><path class="cls-1" d="m255.76,421.71c-3.78-.02-7.39-1.57-10.02-4.29-4.32-4.07-5.33-10.54-2.47-15.74l23.67-23.15c1.53-1.53,2.88-3.24,4.03-5.07,2.38-1.85,5.32-2.81,8.32-2.73,3.78.02,7.39,1.57,10.02,4.29,5.29,5.33,5.29,13.92,0,19.25l-23.54,23.54c-2.62,2.68-6.27,4.11-10.02,3.9Zm-96.25-83.11c3.57.06,7-1.35,9.49-3.9l23.54-23.54c5.35-5.32,5.38-13.96.07-19.31-.02-.02-.04-.04-.07-.07-2.58-2.7-6.15-4.25-9.89-4.29-3.63-.06-7.12,1.4-9.63,4.03l-10.15,10.28h0l-10.15,10.15-1.04.78-1.82,2.34c-5.31,5.37-5.31,14.01,0,19.38,2.65,2.67,6.25,4.17,10.02,4.16h-.39Zm39.02,26.01l23.67-23.8c5.31-5.37,5.31-14.01,0-19.38-2.61-2.64-6.17-4.14-9.89-4.16-1.91.02-3.8.37-5.59,1.04-.92,1.39-1.97,2.7-3.12,3.9l-23.54,23.54c-1,1.02-2.14,1.89-3.38,2.6-2.89,5.17-1.93,11.64,2.34,15.74,2.58,2.71,6.14,4.26,9.89,4.29,3.68.1,7.22-1.37,9.76-4.03l-.13.26Zm33.3,26.66l23.54-23.54c5.29-5.33,5.29-13.92,0-19.25-2.62-2.72-6.24-4.27-10.02-4.29-2.96,0-5.83.96-8.19,2.73-1.15,1.83-2.5,3.54-4.03,5.07l-23.15,23.02c-2.86,5.2-1.84,11.67,2.47,15.74,2.63,2.71,6.24,4.25,10.02,4.29,3.59.02,7.02-1.44,9.5-4.03l-.13.26Zm84.54-7.41c5.22-4.88,6.31-12.75,2.6-18.86l-52.03-53.07,11.06-11.06,52.94,53.07c5.83,5.85,15.3,5.88,21.15.05.02-.02.03-.03.05-.05,3.25-3.03,5.13-7.26,5.2-11.71.12-4.11-1.43-8.1-4.29-11.06l-.78-1.04-51.25-52.03,11.06-11.06,52.94,53.07c2.82,2.84,6.66,4.44,10.67,4.42h0c3.89-.03,7.62-1.57,10.41-4.29,3.15-2.88,4.98-6.92,5.07-11.19.05-4.09-1.54-8.03-4.42-10.93l-67.77-66.33c-7.04-7.18-18.57-7.3-25.75-.26-.09.09-.18.17-.26.26l-28.35,28.35c-13.35,12.88-34.51,12.88-47.87,0l-19.64-19.51,65.03-65.03c-15.29-15.44-36.02-24.27-57.75-24.58-19.58-.08-38.48,7.21-52.94,20.42-33.08,29.93-35.63,81.01-5.69,114.09.92,1.02,1.86,2.01,2.83,2.97l3.12,3.25,10.28-10.15c5.59-5.24,13.03-8.05,20.68-7.8,7.85.31,15.27,3.67,20.68,9.36,6.31,5.69,9.54,14.04,8.71,22.5h0c7.45-.74,14.88,1.61,20.55,6.5,4.77,4.2,7.75,10.06,8.32,16.39h4.03c7.77-.04,15.22,3.06,20.68,8.58,4.94,4.96,7.98,11.5,8.58,18.47h4.03c7.72,0,15.12,3.09,20.55,8.58,6.38,6.29,9.54,15.15,8.58,24.06,3.52-.37,6.8-1.98,9.23-4.55l-.26.13Zm80.64-95.47l.65-.65c31.39-31.5,31.3-82.47-.2-113.86-.83-.82-1.67-1.63-2.54-2.42-14.46-13.21-33.35-20.5-52.94-20.42-21.99.13-43.04,8.97-58.53,24.58l-64.38,65.03,8.84,8.45c7.23,7.07,18.78,7.07,26.01,0l28.09-28.22c13.2-13.15,34.54-13.15,47.74,0l67.25,67.51Z"/></g></g></svg>