<?xml version="1.0" encoding="utf-8"?>
<!-- Generator: Adobe Illustrator 27.5.0, SVG Export Plug-In . SVG Version: 6.00 Build 0)  -->
<svg version="1.1" id="Layer_1" xmlns="http://www.w3.org/2000/svg" xmlns:xlink="http://www.w3.org/1999/xlink" x="0px" y="0px"
	 viewBox="0 0 24 22" style="enable-background:new 0 0 24 22;" xml:space="preserve">
<style type="text/css">
	.st0{fill:#ED5454;}
</style>
<path class="st0" d="M21.4,2.2c-1.2-1.2-2.6-1.8-4.1-1.8l0,0c-1.7,0-3.6,0.8-5.2,2.2c-1.7-1.4-3.5-2.2-5.3-2.2l0,0
	c-1.5,0-3,0.6-4.1,1.8c-2.8,2.8-2.8,7.5,0,10.3l8.6,8.8c0.2,0.1,0.3,0.2,0.5,0.3c0.1,0,0.2,0,0.3,0c0.3,0,0.6-0.1,0.8-0.3l8.6-8.8
	C24.2,9.6,24.2,5,21.4,2.2z"/>
</svg>
