<?xml version="1.0" encoding="utf-8"?>
<!-- Generator: Adobe Illustrator 27.5.0, SVG Export Plug-In . SVG Version: 6.00 Build 0)  -->
<svg version="1.1" id="Layer_1" xmlns="http://www.w3.org/2000/svg" xmlns:xlink="http://www.w3.org/1999/xlink" x="0px" y="0px"
	 viewBox="0 0 24 22" style="enable-background:new 0 0 24 22;" xml:space="preserve">
<style type="text/css">
	.st0{fill:#66676D;}
</style>
<path class="st0" d="M12,21.6c-0.1,0-0.2,0-0.3,0c-0.2,0-0.3-0.2-0.5-0.3l-8.6-8.8C-0.2,9.6-0.2,5,2.6,2.2C3.8,1,5.2,0.4,6.7,0.4
	l0,0c1.7,0,3.6,0.8,5.3,2.2c1.6-1.4,3.5-2.2,5.2-2.2l0,0c1.5,0,3,0.6,4.1,1.8c2.8,2.8,2.8,7.5,0,10.3l-8.6,8.8
	C12.6,21.5,12.3,21.6,12,21.6z M6.7,2.5c-1,0-1.8,0.4-2.6,1.2c-2,2-2,5.3,0,7.3l7.9,8l7.9-8c2-2,2-5.3,0-7.3
	c-0.8-0.8-1.6-1.2-2.6-1.2l0,0c-1.4,0-3.1,0.8-4.5,2.3l0,0C12.6,5,12.3,5.1,12,5.1S11.5,5,11.2,4.8C9.8,3.4,8.2,2.5,6.7,2.5z"/>
</svg>
